<svg width="1024" height="400" viewBox="0 0 1024 400" fill="none" xmlns="http://www.w3.org/2000/svg">
  <!-- Left waveform with gradient colors -->
  <path d="M0 200 L15 180 L30 220 L45 160 L60 240 L75 140 L90 260 L105 120 L120 280 L135 100 L150 300 L165 80 L180 320 L195 60 L210 340 L225 40 L240 360 L255 20 L270 200 L285 180 L300 220 L315 160 L330 240 L345 140 L360 260 L375 120 L390 280 L405 200" stroke="url(#gradient1)" stroke-width="3" fill="none"/>
  
  <!-- Right waveform with gradient colors -->
  <path d="M624 200 L639 180 L654 220 L669 160 L684 240 L699 140 L714 260 L729 120 L744 280 L759 100 L774 300 L789 80 L804 320 L819 60 L834 340 L849 40 L864 360 L879 20 L894 200 L909 180 L924 220 L939 160 L954 240 L969 140 L984 260 L999 120 L1014 280 L1024 200" stroke="url(#gradient2)" stroke-width="3" fill="none"/>
  
  <defs>
    <linearGradient id="gradient1" x1="0" y1="0" x2="405" y2="0">
      <stop offset="0%" stop-color="rgba(236, 72, 153, 0.4)"/>
      <stop offset="50%" stop-color="rgba(139, 92, 246, 0.4)"/>
      <stop offset="100%" stop-color="rgba(255, 165, 0, 0.4)"/>
    </linearGradient>
    <linearGradient id="gradient2" x1="624" y1="0" x2="1024" y2="0">
      <stop offset="0%" stop-color="rgba(255, 165, 0, 0.4)"/>
      <stop offset="50%" stop-color="rgba(139, 92, 246, 0.4)"/>
      <stop offset="100%" stop-color="rgba(236, 72, 153, 0.4)"/>
    </linearGradient>
  </defs>
</svg>
